# xmcd CD database file
#
# Track frame offsets:
#	150
#	51910
#	107393
#	134460
#	215749
#	241950
#
# Disc length: 4441 seconds
#
# Revision: 1
# Processed by: cddbd v1.5.2PL0 Copyright (c) Steve Scherf et al.
# Submitted via: CDex 1.70beta2
#
DISCID=53115706
DTITLE=Lex van Someren - Music for Meditation Volume 2
DYEAR=2006
DGENRE=New Age
TTITLE0=Mystical Return
TTITLE1=Journey to the Heart
TTITLE2=Like ln heaven
TTITLE3=Inner Sanctuary
TTITLE4=Communion
TTITLE5=Ocean Bliss
EXTD=YEAR: 2006
EXTT0=
EXTT1=
EXTT2=
EXTT3=
EXTT4=
EXTT5=
PLAYORDER=
